<svg xmlns="http://www.w3.org/2000/svg" xmlns:xlink="http://www.w3.org/1999/xlink" xml:space="preserve" version="1.1"
  style="shape-rendering:geometricPrecision;text-rendering:geometricPrecision;image-rendering:optimizeQuality;"
  viewBox="0 0 847 1058.75" x="0px" y="0px" fill-rule="evenodd" clip-rule="evenodd">
  <defs>
    <style type="text/css">
      .fil0 {
        fill: rgba(156,163,240,0.78)
      }
    </style>
  </defs>
  <g>
    <path class="fil0" 
      d="M423 8c230,0 416,186 416,415 0,230 -186,416 -416,416 -229,0 -415,-186 -415,-416 0,-229 186,-415 415,-415zm100 210l20 0c25,0 44,19 44,44l0 323c0,24 -19,44 -44,44l-20 0c-25,0 -44,-20 -44,-44l0 -323c0,-25 19,-44 44,-44zm-220 0l21 0c24,0 44,19 44,44l0 323c0,24 -20,44 -44,44l-21 0c-24,0 -44,-20 -44,-44l0 -323c0,-25 20,-44 44,-44z" />
  </g>
</svg>